<?xml version="1.0" standalone="no"?>
<!DOCTYPE svg PUBLIC "-//W3C//DTD SVG 20010904//EN"
 "http://www.w3.org/TR/2001/REC-SVG-20010904/DTD/svg10.dtd">
<svg version="1.0" xmlns="http://www.w3.org/2000/svg"
 width="460.000000pt" height="460.000000pt" viewBox="0 0 460.000000 460.000000"
 preserveAspectRatio="xMidYMid meet">
<metadata>
Created by potrace 1.14, written by Peter Selinger 2001-2017
</metadata>
<g transform="translate(0.000000,460.000000) scale(0.100000,-0.100000)"
fill="#000000" stroke="none">
<path d="M2280 3783 c-8 -3 -31 -19 -51 -34 -20 -16 -46 -29 -57 -29 -12 0
-23 -9 -27 -21 -4 -12 -12 -18 -21 -15 -8 3 -14 -1 -14 -11 0 -12 -3 -13 -14
-4 -11 9 -15 3 -20 -34 -4 -24 -11 -47 -17 -50 -14 -9 -11 -25 5 -25 15 0 63
69 58 83 -1 4 3 7 8 7 6 0 10 -4 10 -9 0 -10 39 -3 57 11 7 5 17 7 23 3 5 -3
47 -6 91 -6 57 0 97 -6 133 -19 28 -11 54 -20 59 -20 11 0 9 38 -3 45 -6 4 -8
11 -5 16 4 5 2 9 -4 9 -6 0 -13 11 -17 25 -4 17 -10 23 -18 17 -6 -5 -22 -5
-36 -1 -14 4 -18 8 -10 9 8 1 2 6 -15 11 -16 5 -35 7 -42 5 -6 -3 -14 2 -17
10 -3 8 -13 14 -21 14 -9 0 -13 5 -10 10 7 11 -1 12 -25 3z"/>
<path d="M2140 3387 c-14 -7 -27 -23 -28 -36 -2 -15 0 -21 7 -17 7 4 8 1 5 -8
-3 -9 -11 -16 -16 -16 -6 0 -4 -10 4 -22 9 -13 24 -23 34 -23 10 0 19 -7 19
-15 0 -8 11 -16 23 -18 27 -4 82 16 82 29 0 5 8 17 18 27 9 10 22 27 29 38 12
19 13 19 27 -1 42 -56 63 -78 86 -87 32 -12 74 -2 66 17 -3 10 3 17 18 21 49
12 41 89 -10 110 -38 16 -120 19 -129 5 -11 -18 -61 -22 -91 -6 -35 18 -110
19 -144 2z m50 -87 c0 -5 -5 -10 -11 -10 -5 0 -7 5 -4 10 3 6 8 10 11 10 2 0
4 -4 4 -10z"/>
<path d="M1980 3250 c0 -19 3 -21 12 -12 9 9 9 15 0 24 -9 9 -12 7 -12 -12z"/>
<path d="M2606 3232 c-7 -12 13 -62 26 -62 13 0 9 34 -5 55 -9 11 -16 14 -21
7z"/>
<path d="M2000 3200 c-7 -13 -7 -26 -2 -36 8 -14 11 -11 21 16 13 40 13 40 1
40 -5 0 -14 -9 -20 -20z"/>
<path d="M2206 3181 c-10 -11 -42 -31 -72 -46 -30 -15 -54 -32 -55 -38 -3 -63
-11 -91 -31 -109 -68 -58 -108 -101 -108 -114 0 -16 -56 -54 -81 -54 -8 0 -33
-13 -55 -29 -44 -33 -67 -29 -78 15 -6 21 -9 24 -21 14 -18 -15 -19 -55 -4
-98 8 -23 7 -36 -2 -54 -7 -13 -12 -40 -10 -61 1 -28 -3 -39 -16 -44 -44 -16
-170 -97 -190 -121 -24 -29 -86 -165 -128 -279 -16 -44 -32 -73 -41 -73 -8 0
-14 5 -14 10 0 6 4 10 9 10 11 0 2 38 -11 46 -6 4 -9 -13 -7 -45 5 -61 2 -62
-91 -21 -38 17 -72 30 -76 30 -4 0 -15 7 -24 15 -9 8 -29 16 -44 17 -16 2 -31
8 -33 15 -4 10 -10 10 -26 2 -16 -9 -23 -8 -31 3 -6 8 -17 13 -23 11 -7 -3
-13 0 -13 5 0 5 -11 7 -25 4 -14 -2 -22 -9 -19 -16 3 -6 -3 -1 -15 12 -13 15
-22 19 -27 11 -5 -8 -9 -8 -14 2 -6 8 -39 14 -97 16 -158 6 -173 5 -190 -8 -9
-8 -14 -9 -10 -3 7 12 -27 26 -38 16 -3 -4 -53 -7 -111 -7 -93 0 -108 -3 -120
-20 -14 -19 -14 -19 -14 1 0 13 -3 15 -8 7 -6 -10 -17 -10 -46 -2 -21 6 -40 8
-44 5 -3 -3 -11 -1 -19 5 -9 9 -17 8 -27 0 -11 -9 -15 -9 -18 1 -4 10 -8 10
-19 1 -10 -8 -20 -9 -29 -3 -36 23 -40 13 -40 -94 0 -82 3 -108 16 -120 14
-15 14 -16 0 -16 -9 0 -16 -6 -16 -13 0 -22 37 -49 57 -43 10 3 25 1 33 -4 13
-8 12 -10 -2 -10 -21 0 -23 -13 -5 -29 10 -8 17 -7 25 1 9 9 12 9 12 -2 1 -9
6 -6 13 7 9 16 16 20 27 13 13 -9 13 -11 0 -20 -12 -7 -12 -12 -2 -22 6 -6 12
-21 12 -33 0 -16 -2 -17 -10 -5 -5 8 -10 13 -11 10 -8 -52 -7 -61 9 -56 12 3
26 -8 44 -34 16 -22 36 -40 45 -39 11 0 13 3 5 6 -6 2 -10 9 -6 14 3 5 -2 12
-10 15 -23 9 -19 26 4 19 14 -5 20 -2 20 9 0 9 7 16 15 16 8 0 15 -7 15 -15 0
-19 5 -19 33 -1 30 18 81 30 72 16 -3 -5 3 -10 14 -10 11 0 23 5 27 11 4 8 9
7 15 -2 6 -11 12 -11 33 1 14 7 29 11 32 7 4 -3 20 1 37 9 23 12 47 15 101 10
99 -8 89 -9 214 4 87 8 123 16 157 35 26 15 46 21 50 15 9 -15 35 -12 29 3 -8
23 19 36 89 43 52 5 67 4 67 -6 0 -7 -11 -56 -24 -109 -14 -53 -30 -150 -37
-216 -6 -66 -17 -146 -24 -178 -7 -31 -9 -55 -5 -52 5 3 17 -8 26 -25 10 -16
27 -33 37 -36 17 -5 16 -9 -8 -51 -14 -25 -25 -54 -25 -65 0 -30 -47 -91 -71
-93 -15 -1 -25 7 -35 32 -16 37 -25 41 -44 18 -12 -14 -15 -13 -30 11 -12 17
-20 22 -25 14 -8 -13 -53 -11 -73 3 -7 6 -17 6 -25 0 -6 -6 -19 -11 -27 -11
-8 0 -25 -4 -37 -7 -16 -5 -25 -3 -29 9 -7 19 -24 21 -24 4 0 -15 -179 -15
-189 0 -7 11 -32 19 -86 27 -21 3 -42 11 -46 17 -4 6 -14 8 -22 5 -8 -3 -27 1
-42 9 -15 8 -31 12 -35 9 -5 -3 -13 2 -18 11 -8 15 -10 15 -15 0 -3 -8 -12
-14 -19 -11 -24 9 -138 12 -138 3 0 -4 -10 -7 -22 -5 -13 1 -26 -6 -32 -18 -6
-11 -18 -19 -28 -17 -9 2 -19 -2 -23 -7 -3 -6 -19 -11 -36 -11 l-29 0 0 -580
0 -580 2300 0 2300 0 0 595 0 594 -67 -5 c-145 -12 -180 -14 -233 -14 -80 0
-106 -8 -118 -35 -7 -14 -18 -25 -27 -25 -8 0 -15 -7 -15 -15 0 -8 -9 -15 -19
-15 -11 0 -21 -4 -23 -9 -1 -6 -22 -7 -45 -4 -37 5 -43 9 -43 29 0 18 -6 24
-21 24 -11 0 -17 4 -14 10 5 7 -11 9 -47 5 -131 -13 -198 -17 -271 -16 -43 1
-83 -2 -90 -6 -7 -4 -24 -8 -39 -8 -23 -1 -30 6 -48 46 -25 60 -25 77 1 98 12
10 25 37 30 66 46 239 48 278 18 391 -11 43 -32 124 -45 179 -14 55 -29 104
-34 109 -6 6 -10 18 -10 27 0 9 -7 22 -15 29 -8 7 -14 22 -13 34 1 18 -140
315 -182 382 -14 23 -95 74 -172 111 -34 16 -48 28 -48 42 0 11 -6 40 -14 63
-11 32 -13 60 -7 108 5 36 5 66 0 68 -4 2 -5 10 -3 17 10 25 -36 76 -90 99
-130 59 -187 77 -254 83 -53 4 -72 3 -72 -6 0 -7 -4 -9 -10 -6 -5 3 -10 21
-10 38 0 43 -7 51 -57 65 -24 7 -43 17 -43 22 0 6 -9 10 -20 10 -11 0 -20 -5
-20 -10 0 -7 -7 -7 -21 0 -11 7 -49 10 -82 8 -43 -2 -65 1 -72 10 -9 11 -14
10 -29 -7z m34 -41 c0 -5 -2 -10 -4 -10 -3 0 -8 5 -11 10 -3 6 -1 10 4 10 6 0
11 -4 11 -10z m194 -15 c4 -10 -1 -15 -14 -15 -11 0 -20 7 -20 15 0 8 6 15 14
15 8 0 16 -7 20 -15z m-31 -52 c-7 -2 -19 -2 -25 0 -7 3 -2 5 12 5 14 0 19 -2
13 -5z m121 -1 c-6 -4 -17 -18 -24 -32 -9 -16 -15 -20 -18 -12 -5 15 25 52 42
52 8 0 8 -2 0 -8z m-144 -42 c-18 -12 -88 -12 -115 0 -14 6 4 9 55 9 52 1 70
-2 60 -9z m-148 -29 c19 -16 47 -30 63 -32 54 -4 95 1 95 12 0 16 26 39 44 39
20 0 20 -11 -1 -48 -28 -49 -62 -63 -135 -57 -34 3 -70 8 -79 11 -27 8 -49
104 -24 104 2 0 19 -13 37 -29z m314 -132 c-9 -17 -13 -35 -11 -40 3 -4 1 -10
-5 -14 -5 -3 -10 1 -10 10 0 9 -5 13 -10 10 -10 -6 -5 8 26 82 8 17 15 37 16
45 1 7 3 -4 5 -25 3 -21 -2 -51 -11 -68z m5 -283 c-7 -13 -24 -29 -37 -35 -24
-11 -33 -31 -14 -31 13 0 13 -27 -1 -35 -5 -4 -34 -15 -62 -26 -50 -17 -50
-18 -18 -19 l34 0 -33 -34 c-19 -19 -35 -40 -36 -47 -1 -8 -11 -34 -22 -59
-21 -47 -34 -112 -37 -191 -1 -25 -5 -51 -9 -57 -4 -7 -4 -12 1 -12 17 0 31
16 36 40 2 14 5 -7 6 -47 0 -39 -3 -74 -8 -77 -4 -3 -21 9 -37 27 -26 29 -29
30 -32 12 -1 -11 9 -54 23 -95 30 -87 36 -118 35 -180 -1 -62 -8 -80 -27 -73
-13 5 -15 1 -9 -23 12 -47 15 -104 6 -104 -9 0 -34 -40 -46 -73 -4 -10 -12
-16 -20 -13 -7 3 -15 0 -18 -7 -2 -7 -5 -4 -5 6 -1 9 -5 17 -9 17 -11 0 -34
68 -27 80 3 5 3 15 -1 21 -3 6 -8 60 -10 120 -3 59 -13 150 -23 201 -12 58
-15 99 -10 110 5 9 7 23 5 30 -6 20 -15 205 -9 191 2 -7 9 -13 15 -13 7 0 8
17 4 48 -13 88 -21 202 -15 202 12 0 38 -36 56 -80 38 -89 78 -169 86 -170 29
-1 8 76 -35 124 -23 26 -71 117 -64 123 2 3 24 -7 49 -21 24 -14 50 -26 58
-25 8 0 4 5 -8 11 -13 6 -25 19 -28 28 -3 10 -20 21 -39 24 -30 6 -33 10 -30
35 3 22 -3 33 -22 46 -31 20 -25 32 7 14 27 -14 179 -21 194 -9 5 4 21 8 35 8
48 0 120 25 137 48 21 29 31 22 14 -10z m-130 -229 c-10 -9 -11 -8 -5 6 3 10
9 15 12 12 3 -3 0 -11 -7 -18z m149 -71 c0 -3 -4 -8 -10 -11 -5 -3 -10 -1 -10
4 0 6 5 11 10 11 6 0 10 -2 10 -4z m-34 -82 c-8 -21 -15 -34 -15 -28 -1 15 20
76 25 71 2 -2 -2 -21 -10 -43z m-2276 -104 c0 -5 -5 -10 -11 -10 -5 0 -7 5 -4
10 3 6 8 10 11 10 2 0 4 -4 4 -10z m650 -52 c0 -56 -13 -65 -50 -34 -24 19
-36 24 -45 16 -9 -8 -14 -6 -19 5 -3 8 -2 15 2 16 4 1 23 2 42 4 19 2 36 8 38
14 9 26 32 10 32 -21z m50 -2 c0 -14 -4 -28 -10 -31 -6 -4 -10 7 -10 24 0 17
5 31 10 31 6 0 10 -11 10 -24z m167 2 c7 -6 14 -5 18 2 13 20 35 10 35 -16 0
-20 -4 -25 -16 -20 -11 4 -22 -1 -31 -14 -17 -24 -53 -27 -53 -4 0 12 -8 14
-35 10 -32 -5 -35 -4 -35 19 0 14 -4 25 -10 25 -5 0 -10 5 -10 10 0 13 119 2
137 -12z m158 -4 c19 7 20 -20 2 -38 -18 -18 -50 -27 -63 -18 -13 8 -26 56
-18 65 3 3 19 1 35 -5 16 -5 36 -7 44 -4z m-645 -4 c0 -5 -2 -10 -4 -10 -3 0
-8 5 -11 10 -3 6 -1 10 4 10 6 0 11 -4 11 -10z m-430 -190 c0 -5 -5 -10 -11
-10 -5 0 -7 5 -4 10 3 6 8 10 11 10 2 0 4 -4 4 -10z m1000 -1219 c0 -23 0 -44
0 -48 1 -5 -8 -9 -18 -11 -13 -2 -21 4 -25 19 -4 15 -11 20 -22 16 -8 -4 -27
-1 -42 6 -21 9 -27 9 -31 -2 -4 -11 -6 -11 -13 0 -5 9 -39 15 -101 19 -54 3
-92 9 -91 15 3 12 73 19 231 23 l112 3 0 -40z m-574 -57 c-9 -8 -16 -11 -16
-5 0 5 5 13 10 16 6 3 11 16 11 28 2 22 2 22 6 -1 2 -12 -3 -29 -11 -38z
m3608 1 c6 -11 15 -23 20 -26 14 -11 -14 -21 -42 -15 l-27 6 30 -25 c17 -14
22 -23 13 -19 -10 3 -18 3 -18 -1 0 -4 8 -14 18 -21 16 -12 16 -13 -2 -27 -10
-7 -30 -12 -45 -11 -14 2 -18 1 -9 -2 19 -6 53 -53 44 -61 -3 -4 -14 1 -24 10
-24 22 -56 23 -48 2 6 -18 -15 -20 -31 -4 -17 17 -36 0 -30 -27 5 -26 -10 -33
-19 -9 -4 8 -10 12 -15 9 -5 -3 -7 -10 -3 -15 8 -13 -14 -75 -32 -89 -11 -10
-17 -6 -29 24 -18 42 -25 44 -43 15 -13 -20 -25 -19 -28 2 -1 5 -2 14 -3 19 0
6 -17 18 -38 28 -28 13 -37 14 -41 4 -3 -10 -7 -10 -19 0 -12 10 -17 9 -28 -5
-7 -9 -17 -17 -22 -17 -5 0 -16 -14 -24 -32 -15 -35 -39 -49 -39 -24 0 9 -7
16 -15 16 -8 0 -15 -7 -15 -15 0 -22 -17 -18 -23 5 -6 24 -47 28 -47 4 0 -9
-9 -29 -20 -45 -24 -32 -47 -29 -61 8 -9 24 -35 40 -47 29 -3 -4 -1 -16 6 -26
14 -23 16 -60 3 -60 -4 0 -20 15 -35 33 l-27 32 -22 -26 c-31 -36 -61 -28 -53
14 15 73 28 108 39 104 7 -2 20 9 30 25 9 16 21 26 26 23 5 -3 16 2 24 10 9 8
22 15 31 15 8 0 18 5 21 10 5 8 11 7 21 -1 18 -15 71 5 79 31 8 24 61 34 87
16 11 -8 27 -12 35 -9 19 7 63 -16 63 -34 0 -16 3 -16 47 2 28 12 38 13 44 3
6 -9 11 -9 23 1 13 11 16 11 16 -3 0 -19 16 -22 22 -4 3 9 26 12 69 11 58 -2
65 0 65 17 0 11 -3 20 -7 20 -4 0 7 22 24 50 23 35 39 50 55 50 13 0 22 6 22
16 0 22 40 14 54 -11z m-3354 -27 c0 -14 -5 -18 -16 -14 -9 3 -20 6 -25 6 -5
0 -1 8 9 18 20 22 32 19 32 -10z m330 8 c0 -2 -9 -6 -20 -9 -11 -3 -20 -1 -20
4 0 5 9 9 20 9 11 0 20 -2 20 -4z m-401 -72 c-20 -37 -28 -28 -10 12 8 19 17
30 19 24 3 -7 -1 -23 -9 -36z m-206 6 c-3 -12 -8 -19 -11 -16 -5 6 5 36 12 36
2 0 2 -9 -1 -20z m3787 4 c0 -8 -5 -12 -10 -9 -6 4 -8 11 -5 16 9 14 15 11 15
-7z m-4004 -52 c-12 -12 -18 8 -10 35 l8 28 4 -28 c2 -16 1 -31 -2 -35z m4173
44 c15 -17 1 -28 -19 -15 -8 5 -10 9 -5 9 6 0 3 5 -5 10 -13 8 -13 10 1 10 9
0 22 -6 28 -14z m-4069 -37 c0 -6 -4 -7 -10 -4 -5 3 -10 11 -10 16 0 6 5 7 10
4 6 -3 10 -11 10 -16z m480 -3 c0 -2 -9 -6 -20 -9 -11 -3 -18 -1 -14 4 5 9 34
13 34 5z m-545 -36 c3 -5 1 -10 -4 -10 -6 0 -11 5 -11 10 0 6 2 10 4 10 3 0 8
-4 11 -10z m3845 -30 c0 -5 -2 -10 -4 -10 -3 0 -8 5 -11 10 -3 6 -1 10 4 10 6
0 11 -4 11 -10z m-3470 -10 c0 -5 -4 -10 -10 -10 -5 0 -10 5 -10 10 0 6 5 10
10 10 6 0 10 -4 10 -10z m3516 -63 c21 -4 21 -4 -3 -3 -17 1 -28 7 -29 16 0 8
1 10 3 3 2 -6 15 -14 29 -16z m120 20 c18 -11 19 -13 4 -28 -18 -17 -34 -7
-36 24 -2 20 4 21 32 4z m-3240 -18 c3 -6 16 -8 27 -5 24 6 47 -9 47 -31 0 -9
-7 -13 -17 -11 -10 2 -17 9 -16 15 2 7 -11 10 -32 8 -23 -2 -42 3 -56 16 l-22
19 31 0 c17 0 34 -5 38 -11z m2918 -5 c9 -22 -3 -32 -14 -14 -12 19 -12 30 -1
30 5 0 12 -7 15 -16z m74 -2 c2 -7 -2 -10 -12 -6 -12 5 -15 2 -10 -10 3 -9 1
-16 -5 -16 -6 0 -11 12 -11 26 0 18 5 25 17 22 9 -2 18 -9 21 -16z m82 -11 c0
-6 -5 -13 -10 -16 -17 -10 0 -26 21 -20 10 4 19 2 19 -3 0 -14 -21 -28 -51
-35 -21 -5 -28 -2 -37 16 l-11 22 -2 -22 c-1 -13 -2 -29 -3 -35 -1 -16 -21
-38 -35 -38 -16 0 -23 38 -10 62 15 30 49 57 72 58 10 0 15 5 12 10 -3 6 3 10
14 10 12 0 21 -4 21 -9z m-3190 -11 c0 -5 -7 -10 -15 -10 -8 0 -15 5 -15 10 0
6 7 10 15 10 8 0 15 -4 15 -10z m3415 0 c3 -5 1 -10 -4 -10 -6 0 -11 5 -11 10
0 6 2 10 4 10 3 0 8 -4 11 -10z m-3648 -6 c-3 -3 -12 -4 -19 -1 -8 3 -5 6 6 6
11 1 17 -2 13 -5z m-82 -54 c3 -5 -1 -10 -10 -10 -9 0 -13 5 -10 10 3 6 8 10
10 10 2 0 7 -4 10 -10z m200 -20 c-11 -5 -27 -9 -35 -9 -13 -1 -13 0 0 9 8 5
24 9 35 9 l20 0 -20 -9z m70 -10 c-3 -5 -13 -10 -21 -10 -8 0 -12 5 -9 10 3 6
13 10 21 10 8 0 12 -4 9 -10z m3205 -4 c0 -3 -4 -8 -10 -11 -5 -3 -10 -1 -10
4 0 6 5 11 10 11 6 0 10 -2 10 -4z m-3480 -49 c0 -2 -10 -12 -21 -23 -22 -19
-22 -19 -10 4 10 18 31 31 31 19z m521 -18 c10 -20 9 -21 -12 -16 -13 4 -31 7
-39 7 -11 1 -10 4 4 15 26 20 33 19 47 -6z m3227 -11 c0 -7 4 -23 7 -36 5 -14
3 -22 -4 -22 -6 0 -11 7 -11 15 0 8 -15 19 -32 24 -25 7 -27 9 -11 10 12 1 25
6 28 11 9 14 21 12 23 -2z m-3371 -35 c-9 -9 -19 -14 -23 -11 -10 10 6 28 24
28 15 0 15 -1 -1 -17z m-17 -33 c0 -5 -4 -10 -10 -10 -5 0 -10 5 -10 10 0 6 5
10 10 10 6 0 10 -4 10 -10z"/>
<path d="M2028 3073 c7 -3 16 -2 19 1 4 3 -2 6 -13 5 -11 0 -14 -3 -6 -6z"/>
<path d="M1251 2104 c0 -11 3 -14 6 -6 3 7 2 16 -1 19 -3 4 -6 -2 -5 -13z"/>
<path d="M126 1734 c-7 -17 14 -32 43 -30 37 2 35 20 -4 32 -26 8 -35 8 -39
-2z"/>
<path d="M998 1671 c-7 -12 -18 -21 -25 -21 -7 0 -13 -6 -13 -12 0 -10 -3 -9
-9 1 -7 12 -12 11 -30 -1 -11 -8 -18 -18 -14 -21 3 -4 -1 -7 -10 -7 -28 0 -29
-19 -3 -32 14 -6 26 -17 26 -25 0 -16 0 -16 37 2 32 16 62 45 47 45 -5 0 -2 6
7 13 22 17 30 54 14 67 -11 9 -17 7 -27 -9z"/>
<path d="M1073 1673 c-7 -2 -13 -9 -13 -14 0 -15 36 -10 50 6 10 12 9 15 -6
14 -11 0 -25 -3 -31 -6z"/>
<path d="M640 1645 c0 -8 9 -15 20 -15 11 0 20 7 20 15 0 8 -9 15 -20 15 -11
0 -20 -7 -20 -15z"/>
</g>
</svg>
